<mxfile host="Electron" modified="2024-05-03T16:44:24.908Z" agent="Mozilla/5.0 (Windows NT 10.0; Win64; x64) AppleWebKit/537.36 (KHTML, like Gecko) draw.io/24.2.5 Chrome/120.0.6099.109 Electron/28.1.0 Safari/537.36" etag="E6Aupe9zyph9Jv9jeK72" version="24.2.5" type="device" pages="2">
  <diagram id="CDcMdj7Fr2qlYyaRchAT" name="Lambda">
    <mxGraphModel dx="1100" dy="902" grid="1" gridSize="10" guides="1" tooltips="1" connect="1" arrows="1" fold="1" page="1" pageScale="1" pageWidth="850" pageHeight="1100" math="1" shadow="0">
      <root>
        <mxCell id="0" />
        <mxCell id="1" parent="0" />
        <mxCell id="2" value="$$k$$" style="whiteSpace=wrap;html=1;fontSize=24;" parent="1" vertex="1">
          <mxGeometry x="60" y="198" width="40" height="40" as="geometry" />
        </mxCell>
        <mxCell id="I3B6Szq_1TRlmMXlOv3N-2" value="" style="shape=waypoint;sketch=0;size=6;pointerEvents=1;points=[];fillColor=none;resizable=0;rotatable=0;perimeter=centerPerimeter;snapToPoint=1;hachureGap=4;jiggle=2;curveFitting=1;fontFamily=Architects Daughter;fontSource=https%3A%2F%2Ffonts.googleapis.com%2Fcss%3Ffamily%3DArchitects%2BDaughter;" parent="1" vertex="1">
          <mxGeometry x="170" y="188" width="20" height="20" as="geometry" />
        </mxCell>
        <mxCell id="I3B6Szq_1TRlmMXlOv3N-3" value="" style="shape=waypoint;sketch=0;size=6;pointerEvents=1;points=[];fillColor=none;resizable=0;rotatable=0;perimeter=centerPerimeter;snapToPoint=1;hachureGap=4;jiggle=2;curveFitting=1;fontFamily=Architects Daughter;fontSource=https%3A%2F%2Ffonts.googleapis.com%2Fcss%3Ffamily%3DArchitects%2BDaughter;" parent="1" vertex="1">
          <mxGeometry x="170" y="208" width="20" height="20" as="geometry" />
        </mxCell>
        <mxCell id="I3B6Szq_1TRlmMXlOv3N-4" value="" style="shape=waypoint;sketch=0;size=6;pointerEvents=1;points=[];fillColor=none;resizable=0;rotatable=0;perimeter=centerPerimeter;snapToPoint=1;hachureGap=4;jiggle=2;curveFitting=1;fontFamily=Architects Daughter;fontSource=https%3A%2F%2Ffonts.googleapis.com%2Fcss%3Ffamily%3DArchitects%2BDaughter;" parent="1" vertex="1">
          <mxGeometry x="170" y="228" width="20" height="20" as="geometry" />
        </mxCell>
        <mxCell id="I3B6Szq_1TRlmMXlOv3N-9" value="" style="curved=1;endArrow=classic;html=1;rounded=0;sketch=1;hachureGap=4;jiggle=2;curveFitting=1;fontFamily=Architects Daughter;fontSource=https%3A%2F%2Ffonts.googleapis.com%2Fcss%3Ffamily%3DArchitects%2BDaughter;exitX=1;exitY=0.5;exitDx=0;exitDy=0;" parent="1" source="2" edge="1">
          <mxGeometry width="50" height="50" relative="1" as="geometry">
            <mxPoint x="20" y="383" as="sourcePoint" />
            <mxPoint x="200" y="148" as="targetPoint" />
            <Array as="points">
              <mxPoint x="130" y="153" />
            </Array>
          </mxGeometry>
        </mxCell>
        <mxCell id="I3B6Szq_1TRlmMXlOv3N-10" value="" style="curved=1;endArrow=classic;html=1;rounded=0;sketch=1;hachureGap=4;jiggle=2;curveFitting=1;fontFamily=Architects Daughter;fontSource=https%3A%2F%2Ffonts.googleapis.com%2Fcss%3Ffamily%3DArchitects%2BDaughter;exitX=1;exitY=0.5;exitDx=0;exitDy=0;" parent="1" source="2" edge="1">
          <mxGeometry width="50" height="50" relative="1" as="geometry">
            <mxPoint x="110" y="228" as="sourcePoint" />
            <mxPoint x="200" y="168" as="targetPoint" />
            <Array as="points">
              <mxPoint x="140" y="203" />
              <mxPoint x="180" y="173" />
            </Array>
          </mxGeometry>
        </mxCell>
        <mxCell id="I3B6Szq_1TRlmMXlOv3N-11" value="" style="curved=1;endArrow=classic;html=1;rounded=0;sketch=1;hachureGap=4;jiggle=2;curveFitting=1;fontFamily=Architects Daughter;fontSource=https%3A%2F%2Ffonts.googleapis.com%2Fcss%3Ffamily%3DArchitects%2BDaughter;exitX=1;exitY=0.5;exitDx=0;exitDy=0;entryX=0.64;entryY=0.32;entryDx=0;entryDy=0;entryPerimeter=0;" parent="1" source="2" edge="1">
          <mxGeometry width="50" height="50" relative="1" as="geometry">
            <mxPoint x="110" y="228" as="sourcePoint" />
            <mxPoint x="200" y="268" as="targetPoint" />
            <Array as="points">
              <mxPoint x="140" y="223" />
              <mxPoint x="160" y="253" />
            </Array>
          </mxGeometry>
        </mxCell>
        <mxCell id="I3B6Szq_1TRlmMXlOv3N-12" value="" style="curved=1;endArrow=classic;html=1;rounded=0;sketch=1;hachureGap=4;jiggle=2;curveFitting=1;fontFamily=Architects Daughter;fontSource=https%3A%2F%2Ffonts.googleapis.com%2Fcss%3Ffamily%3DArchitects%2BDaughter;exitX=1;exitY=0.5;exitDx=0;exitDy=0;entryX=0.68;entryY=0.92;entryDx=0;entryDy=0;entryPerimeter=0;" parent="1" source="2" edge="1">
          <mxGeometry width="50" height="50" relative="1" as="geometry">
            <mxPoint x="110" y="228" as="sourcePoint" />
            <mxPoint x="200" y="288" as="targetPoint" />
            <Array as="points">
              <mxPoint x="140" y="283" />
            </Array>
          </mxGeometry>
        </mxCell>
        <mxCell id="I3B6Szq_1TRlmMXlOv3N-13" value="$$T$$" style="text;html=1;align=center;verticalAlign=middle;resizable=0;points=[];autosize=1;strokeColor=none;fillColor=none;fontFamily=Architects Daughter;fontSource=https%3A%2F%2Ffonts.googleapis.com%2Fcss%3Ffamily%3DArchitects%2BDaughter;fontSize=24;" parent="1" vertex="1">
          <mxGeometry x="106" y="118" width="90" height="40" as="geometry" />
        </mxCell>
        <mxCell id="I3B6Szq_1TRlmMXlOv3N-14" value="$$K$$" style="text;html=1;align=center;verticalAlign=middle;resizable=0;points=[];autosize=1;strokeColor=none;fillColor=none;fontFamily=Architects Daughter;fontSource=https%3A%2F%2Ffonts.googleapis.com%2Fcss%3Ffamily%3DArchitects%2BDaughter;fontSize=24;" parent="1" vertex="1">
          <mxGeometry x="10" y="108" width="90" height="40" as="geometry" />
        </mxCell>
        <mxCell id="I3B6Szq_1TRlmMXlOv3N-15" value="$$V$$" style="text;html=1;align=center;verticalAlign=middle;resizable=0;points=[];autosize=1;strokeColor=none;fillColor=none;fontFamily=Architects Daughter;fontSource=https%3A%2F%2Ffonts.googleapis.com%2Fcss%3Ffamily%3DArchitects%2BDaughter;fontSize=24;" parent="1" vertex="1">
          <mxGeometry x="156" y="84" width="90" height="40" as="geometry" />
        </mxCell>
        <mxCell id="I3B6Szq_1TRlmMXlOv3N-16" value="$$K$$" style="text;html=1;align=center;verticalAlign=middle;resizable=0;points=[];autosize=1;strokeColor=none;fillColor=none;fontFamily=Architects Daughter;fontSource=https%3A%2F%2Ffonts.googleapis.com%2Fcss%3Ffamily%3DArchitects%2BDaughter;fontSize=24;" parent="1" vertex="1">
          <mxGeometry x="305" y="108" width="90" height="40" as="geometry" />
        </mxCell>
        <mxCell id="I3B6Szq_1TRlmMXlOv3N-17" value="$$\Lambda(k)$$" style="whiteSpace=wrap;html=1;fontSize=24;" parent="1" vertex="1">
          <mxGeometry x="305" y="200" width="85" height="38" as="geometry" />
        </mxCell>
        <mxCell id="I3B6Szq_1TRlmMXlOv3N-18" value="" style="curved=1;endArrow=none;html=1;rounded=0;sketch=1;hachureGap=4;jiggle=2;curveFitting=1;fontFamily=Architects Daughter;fontSource=https%3A%2F%2Ffonts.googleapis.com%2Fcss%3Ffamily%3DArchitects%2BDaughter;exitX=0;exitY=0.5;exitDx=0;exitDy=0;startArrow=classic;startFill=1;endFill=0;" parent="1" source="I3B6Szq_1TRlmMXlOv3N-17" edge="1">
          <mxGeometry width="50" height="50" relative="1" as="geometry">
            <mxPoint x="245" y="338" as="sourcePoint" />
            <mxPoint x="200" y="148" as="targetPoint" />
            <Array as="points">
              <mxPoint x="260" y="218" />
              <mxPoint x="240" y="138" />
            </Array>
          </mxGeometry>
        </mxCell>
        <mxCell id="I3B6Szq_1TRlmMXlOv3N-19" value="" style="curved=1;endArrow=classic;html=1;rounded=0;sketch=1;hachureGap=4;jiggle=2;curveFitting=1;fontFamily=Architects Daughter;fontSource=https%3A%2F%2Ffonts.googleapis.com%2Fcss%3Ffamily%3DArchitects%2BDaughter;entryX=0;entryY=0.5;entryDx=0;entryDy=0;" parent="1" target="I3B6Szq_1TRlmMXlOv3N-17" edge="1">
          <mxGeometry width="50" height="50" relative="1" as="geometry">
            <mxPoint x="200" y="168" as="sourcePoint" />
            <mxPoint x="290" y="228" as="targetPoint" />
            <Array as="points">
              <mxPoint x="230" y="158" />
              <mxPoint x="270" y="218" />
            </Array>
          </mxGeometry>
        </mxCell>
        <mxCell id="I3B6Szq_1TRlmMXlOv3N-20" value="" style="curved=1;endArrow=classic;html=1;rounded=0;sketch=1;hachureGap=4;jiggle=2;curveFitting=1;fontFamily=Architects Daughter;fontSource=https%3A%2F%2Ffonts.googleapis.com%2Fcss%3Ffamily%3DArchitects%2BDaughter;entryX=0;entryY=0.5;entryDx=0;entryDy=0;" parent="1" target="I3B6Szq_1TRlmMXlOv3N-17" edge="1">
          <mxGeometry width="50" height="50" relative="1" as="geometry">
            <mxPoint x="200" y="268" as="sourcePoint" />
            <mxPoint x="290" y="228" as="targetPoint" />
            <Array as="points">
              <mxPoint x="240" y="268" />
              <mxPoint x="270" y="218" />
            </Array>
          </mxGeometry>
        </mxCell>
        <mxCell id="I3B6Szq_1TRlmMXlOv3N-21" value="" style="curved=1;endArrow=classic;html=1;rounded=0;sketch=1;hachureGap=4;jiggle=2;curveFitting=1;fontFamily=Architects Daughter;fontSource=https%3A%2F%2Ffonts.googleapis.com%2Fcss%3Ffamily%3DArchitects%2BDaughter;entryX=0;entryY=0.5;entryDx=0;entryDy=0;" parent="1" target="I3B6Szq_1TRlmMXlOv3N-17" edge="1">
          <mxGeometry width="50" height="50" relative="1" as="geometry">
            <mxPoint x="200" y="288" as="sourcePoint" />
            <mxPoint x="290" y="238" as="targetPoint" />
            <Array as="points">
              <mxPoint x="260" y="278" />
              <mxPoint x="270" y="218" />
            </Array>
          </mxGeometry>
        </mxCell>
        <mxCell id="I3B6Szq_1TRlmMXlOv3N-24" value="" style="endArrow=none;dashed=1;html=1;rounded=0;sketch=1;hachureGap=4;jiggle=2;curveFitting=1;fontFamily=Architects Daughter;fontSource=https%3A%2F%2Ffonts.googleapis.com%2Fcss%3Ffamily%3DArchitects%2BDaughter;" parent="1" edge="1">
          <mxGeometry width="50" height="50" relative="1" as="geometry">
            <mxPoint x="100" y="298" as="sourcePoint" />
            <mxPoint x="102" y="71" as="targetPoint" />
          </mxGeometry>
        </mxCell>
        <mxCell id="I3B6Szq_1TRlmMXlOv3N-27" value="" style="shape=waypoint;sketch=0;size=6;pointerEvents=1;points=[];fillColor=none;resizable=0;rotatable=0;perimeter=centerPerimeter;snapToPoint=1;hachureGap=4;jiggle=2;curveFitting=1;fontFamily=Architects Daughter;fontSource=https%3A%2F%2Ffonts.googleapis.com%2Fcss%3Ffamily%3DArchitects%2BDaughter;" parent="1" vertex="1">
          <mxGeometry x="217" y="188" width="20" height="20" as="geometry" />
        </mxCell>
        <mxCell id="I3B6Szq_1TRlmMXlOv3N-28" value="" style="shape=waypoint;sketch=0;size=6;pointerEvents=1;points=[];fillColor=none;resizable=0;rotatable=0;perimeter=centerPerimeter;snapToPoint=1;hachureGap=4;jiggle=2;curveFitting=1;fontFamily=Architects Daughter;fontSource=https%3A%2F%2Ffonts.googleapis.com%2Fcss%3Ffamily%3DArchitects%2BDaughter;" parent="1" vertex="1">
          <mxGeometry x="217" y="208" width="20" height="20" as="geometry" />
        </mxCell>
        <mxCell id="I3B6Szq_1TRlmMXlOv3N-29" value="" style="shape=waypoint;sketch=0;size=6;pointerEvents=1;points=[];fillColor=none;resizable=0;rotatable=0;perimeter=centerPerimeter;snapToPoint=1;hachureGap=4;jiggle=2;curveFitting=1;fontFamily=Architects Daughter;fontSource=https%3A%2F%2Ffonts.googleapis.com%2Fcss%3Ffamily%3DArchitects%2BDaughter;" parent="1" vertex="1">
          <mxGeometry x="217" y="228" width="20" height="20" as="geometry" />
        </mxCell>
        <mxCell id="I3B6Szq_1TRlmMXlOv3N-30" value="" style="endArrow=none;dashed=1;html=1;rounded=0;sketch=1;hachureGap=4;jiggle=2;curveFitting=1;fontFamily=Architects Daughter;fontSource=https%3A%2F%2Ffonts.googleapis.com%2Fcss%3Ffamily%3DArchitects%2BDaughter;" parent="1" edge="1">
          <mxGeometry width="50" height="50" relative="1" as="geometry">
            <mxPoint x="200" y="308" as="sourcePoint" />
            <mxPoint x="201" y="128" as="targetPoint" />
          </mxGeometry>
        </mxCell>
        <mxCell id="I3B6Szq_1TRlmMXlOv3N-31" value="" style="endArrow=none;dashed=1;html=1;rounded=0;sketch=1;hachureGap=4;jiggle=2;curveFitting=1;fontFamily=Architects Daughter;fontSource=https%3A%2F%2Ffonts.googleapis.com%2Fcss%3Ffamily%3DArchitects%2BDaughter;" parent="1" edge="1">
          <mxGeometry width="50" height="50" relative="1" as="geometry">
            <mxPoint x="303" y="305" as="sourcePoint" />
            <mxPoint x="305" y="68" as="targetPoint" />
          </mxGeometry>
        </mxCell>
        <mxCell id="I3B6Szq_1TRlmMXlOv3N-33" value="$$\Lambda$$" style="text;html=1;align=center;verticalAlign=middle;resizable=0;points=[];autosize=1;strokeColor=none;fillColor=none;fontFamily=Architects Daughter;fontSource=https%3A%2F%2Ffonts.googleapis.com%2Fcss%3Ffamily%3DArchitects%2BDaughter;fontSize=24;" parent="1" vertex="1">
          <mxGeometry x="116" y="18" width="170" height="40" as="geometry" />
        </mxCell>
        <mxCell id="I3B6Szq_1TRlmMXlOv3N-34" value="" style="endArrow=none;dashed=1;html=1;rounded=0;sketch=1;hachureGap=4;jiggle=2;curveFitting=1;fontFamily=Architects Daughter;fontSource=https%3A%2F%2Ffonts.googleapis.com%2Fcss%3Ffamily%3DArchitects%2BDaughter;" parent="1" edge="1">
          <mxGeometry width="50" height="50" relative="1" as="geometry">
            <mxPoint x="305" y="68" as="sourcePoint" />
            <mxPoint x="105" y="68" as="targetPoint" />
          </mxGeometry>
        </mxCell>
        <mxCell id="I3B6Szq_1TRlmMXlOv3N-35" value="$$\varphi$$" style="text;html=1;align=center;verticalAlign=middle;resizable=0;points=[];autosize=1;strokeColor=none;fillColor=none;fontFamily=Architects Daughter;fontSource=https%3A%2F%2Ffonts.googleapis.com%2Fcss%3Ffamily%3DArchitects%2BDaughter;fontSize=24;" parent="1" vertex="1">
          <mxGeometry x="179" y="118" width="160" height="40" as="geometry" />
        </mxCell>
        <mxCell id="I3B6Szq_1TRlmMXlOv3N-36" value="" style="endArrow=none;dashed=1;html=1;rounded=0;sketch=1;hachureGap=4;jiggle=2;curveFitting=1;fontFamily=Architects Daughter;fontSource=https%3A%2F%2Ffonts.googleapis.com%2Fcss%3Ffamily%3DArchitects%2BDaughter;" parent="1" edge="1">
          <mxGeometry width="50" height="50" relative="1" as="geometry">
            <mxPoint x="300" y="310" as="sourcePoint" />
            <mxPoint x="100" y="310" as="targetPoint" />
          </mxGeometry>
        </mxCell>
        <mxCell id="I3B6Szq_1TRlmMXlOv3N-42" value="" style="curved=1;endArrow=none;html=1;rounded=0;sketch=1;hachureGap=4;jiggle=2;curveFitting=1;fontFamily=Architects Daughter;fontSource=https%3A%2F%2Ffonts.googleapis.com%2Fcss%3Ffamily%3DArchitects%2BDaughter;endFill=0;flowAnimation=0;opacity=0;" parent="1" edge="1">
          <mxGeometry width="50" height="50" relative="1" as="geometry">
            <mxPoint x="121" y="340" as="sourcePoint" />
            <mxPoint x="281" y="350" as="targetPoint" />
            <Array as="points">
              <mxPoint x="180" y="360" />
              <mxPoint x="231" y="330" />
            </Array>
          </mxGeometry>
        </mxCell>
      </root>
    </mxGraphModel>
  </diagram>
  <diagram id="hXauKrpzdOVOP0B125Zk" name="T_w">
    <mxGraphModel dx="1100" dy="902" grid="1" gridSize="10" guides="1" tooltips="1" connect="1" arrows="1" fold="1" page="1" pageScale="1" pageWidth="850" pageHeight="1100" math="1" shadow="0">
      <root>
        <mxCell id="0" />
        <mxCell id="1" parent="0" />
        <mxCell id="inDHoF1R6sWpup2mzLYP-1" value="" style="edgeStyle=none;orthogonalLoop=1;jettySize=auto;html=1;" parent="1" edge="1">
          <mxGeometry width="100" relative="1" as="geometry">
            <mxPoint x="40" y="130" as="sourcePoint" />
            <mxPoint x="200" y="130" as="targetPoint" />
            <Array as="points" />
          </mxGeometry>
        </mxCell>
        <mxCell id="inDHoF1R6sWpup2mzLYP-2" value="" style="edgeStyle=none;orthogonalLoop=1;jettySize=auto;html=1;" parent="1" edge="1">
          <mxGeometry width="100" relative="1" as="geometry">
            <mxPoint x="40" y="130" as="sourcePoint" />
            <mxPoint x="40" y="20" as="targetPoint" />
            <Array as="points" />
          </mxGeometry>
        </mxCell>
        <mxCell id="inDHoF1R6sWpup2mzLYP-3" value="" style="edgeStyle=none;orthogonalLoop=1;jettySize=auto;html=1;" parent="1" edge="1">
          <mxGeometry width="100" relative="1" as="geometry">
            <mxPoint x="40" y="130" as="sourcePoint" />
            <mxPoint x="90" y="80" as="targetPoint" />
            <Array as="points" />
          </mxGeometry>
        </mxCell>
        <mxCell id="inDHoF1R6sWpup2mzLYP-4" value="" style="edgeStyle=none;orthogonalLoop=1;jettySize=auto;html=1;endArrow=none;endFill=0;startArrow=none;fillColor=#0050ef;strokeColor=#001DBC;" parent="1" source="inDHoF1R6sWpup2mzLYP-6" edge="1">
          <mxGeometry width="100" relative="1" as="geometry">
            <mxPoint x="10" y="150" as="sourcePoint" />
            <mxPoint x="180" y="60" as="targetPoint" />
            <Array as="points" />
          </mxGeometry>
        </mxCell>
        <mxCell id="inDHoF1R6sWpup2mzLYP-7" value="" style="edgeStyle=none;orthogonalLoop=1;jettySize=auto;html=1;endArrow=none;endFill=0;fillColor=#0050ef;strokeColor=#001DBC;" parent="1" target="inDHoF1R6sWpup2mzLYP-6" edge="1">
          <mxGeometry width="100" relative="1" as="geometry">
            <mxPoint x="20" y="140" as="sourcePoint" />
            <mxPoint x="180" y="40" as="targetPoint" />
            <Array as="points" />
          </mxGeometry>
        </mxCell>
        <mxCell id="inDHoF1R6sWpup2mzLYP-6" value="" style="shape=waypoint;sketch=0;size=6;pointerEvents=1;points=[];fillColor=#e51400;resizable=0;rotatable=0;perimeter=centerPerimeter;snapToPoint=1;fontColor=#ffffff;strokeColor=#B20000;" parent="1" vertex="1">
          <mxGeometry x="110" y="80" width="20" height="20" as="geometry" />
        </mxCell>
        <mxCell id="viu4tYAE2l6YB9pahCiR-1" value="$$v$$" style="text;html=1;align=center;verticalAlign=middle;resizable=0;points=[];autosize=1;strokeColor=none;fillColor=none;" parent="1" vertex="1">
          <mxGeometry x="97" y="85" width="60" height="30" as="geometry" />
        </mxCell>
        <mxCell id="viu4tYAE2l6YB9pahCiR-2" value="$$\text{im}T_v$$" style="text;html=1;align=center;verticalAlign=middle;resizable=0;points=[];autosize=1;strokeColor=none;fillColor=none;" parent="1" vertex="1">
          <mxGeometry x="109" y="32" width="110" height="30" as="geometry" />
        </mxCell>
      </root>
    </mxGraphModel>
  </diagram>
</mxfile>
